<svg xmlns="http://www.w3.org/2000/svg" width="13.667" height="14.667" viewBox="0 0 13.667 14.667" fill="none">
  <path d="M 6.833 0 C 8.601 0 10.073 1.355 10.22 3.116 L 10.296 4.046 C 10.365 4.052 10.433 4.056 10.497 4.064 C 11.031 4.131 11.485 4.275 11.872 4.603 C 12.257 4.93 12.474 5.355 12.632 5.872 C 12.784 6.37 12.897 7.007 13.036 7.796 L 13.292 9.248 C 13.486 10.344 13.639 11.22 13.663 11.912 C 13.688 12.626 13.581 13.238 13.163 13.744 C 12.743 14.251 12.164 14.468 11.462 14.569 C 10.784 14.667 9.904 14.667 8.806 14.667 L 4.861 14.667 C 3.763 14.667 2.884 14.667 2.205 14.569 C 1.504 14.468 0.924 14.251 0.505 13.744 C 0.087 13.238 -0.022 12.626 0.003 11.912 C 0.027 11.22 0.182 10.344 0.375 9.248 L 0.631 7.796 C 0.77 7.007 0.883 6.37 1.036 5.872 C 1.194 5.355 1.411 4.93 1.796 4.603 C 2.183 4.275 2.637 4.131 3.17 4.064 C 3.235 4.056 3.301 4.052 3.37 4.046 L 3.447 3.116 C 3.593 1.355 5.066 0 6.833 0 Z M 5.145 5 C 4.314 5 3.736 5.001 3.294 5.057 C 2.867 5.11 2.626 5.21 2.443 5.365 C 2.259 5.521 2.12 5.745 1.992 6.164 C 1.859 6.596 1.757 7.173 1.611 8.002 L 1.368 9.383 C 1.166 10.527 1.025 11.333 1.003 11.947 C 0.982 12.548 1.081 12.871 1.276 13.106 C 1.47 13.341 1.764 13.495 2.348 13.579 C 2.947 13.665 3.754 13.667 4.902 13.667 L 8.766 13.667 C 9.914 13.667 10.721 13.665 11.32 13.579 C 11.904 13.495 12.198 13.341 12.392 13.106 C 12.587 12.871 12.685 12.547 12.664 11.947 C 12.643 11.333 12.502 10.527 12.3 9.383 L 12.057 8.002 C 11.911 7.173 11.808 6.596 11.676 6.164 C 11.548 5.745 11.408 5.521 11.224 5.365 C 11.041 5.21 10.8 5.11 10.372 5.057 C 9.93 5.001 9.353 5 8.522 5 L 5.145 5 Z M 8.879 6.002 C 9.154 6.027 9.357 6.271 9.331 6.546 C 9.217 7.784 8.094 8.667 6.833 8.667 C 5.573 8.667 4.45 7.784 4.336 6.546 C 4.311 6.271 4.513 6.027 4.788 6.002 C 5.062 5.977 5.306 6.179 5.331 6.454 C 5.391 7.1 6.007 7.667 6.833 7.667 C 7.66 7.667 8.277 7.1 8.336 6.454 C 8.362 6.179 8.605 5.977 8.879 6.002 Z M 6.833 1 C 5.586 1 4.547 1.956 4.444 3.199 L 4.375 4.006 C 4.605 4.004 4.85 4 5.112 4 L 8.555 4 C 8.816 4 9.061 4.004 9.29 4.006 L 9.223 3.199 C 9.119 1.956 8.081 1 6.833 1 Z" fill="currentColor" fill-rule="evenodd"></path>
</svg>